<?xml version="1.0" encoding="UTF-8" standalone="no"?>
<!DOCTYPE svg PUBLIC "-//W3C//DTD SVG 1.1//EN" "http://www.w3.org/Graphics/SVG/1.1/DTD/svg11.dtd">
<svg width="100%" height="100%" viewBox="0 0 199 75" version="1.1" xmlns="http://www.w3.org/2000/svg" xmlns:xlink="http://www.w3.org/1999/xlink" xml:space="preserve" xmlns:serif="http://www.serif.com/" style="fill-rule:evenodd;clip-rule:evenodd;stroke-linejoin:round;stroke-miterlimit:2;">
    <path d="M6.102,63.094C2.734,63.094 0,65.761 0,69.046C0,72.332 2.734,75 6.102,75C9.468,75 12.202,72.332 12.202,69.046C12.202,65.761 9.468,63.094 6.102,63.094ZM192.899,63.094C189.532,63.094 186.798,65.761 186.798,69.046C186.798,72.332 189.532,75 192.899,75C196.266,75 199,72.332 199,69.046C199,65.761 196.266,63.094 192.899,63.094ZM6.102,65.019C8.379,65.019 10.229,66.823 10.229,69.046C10.229,71.269 8.379,73.075 6.102,73.075C3.823,73.075 1.973,71.269 1.973,69.046C1.973,66.823 3.823,65.019 6.102,65.019ZM192.899,65.019C195.177,65.019 197.027,66.823 197.027,69.046C197.027,71.269 195.177,73.075 192.899,73.075C190.621,73.075 188.771,71.269 188.771,69.046C188.771,66.823 190.621,65.019 192.899,65.019ZM20.555,70.307L26.475,70.307L26.475,68.381L20.555,68.381L20.555,70.307ZM13.648,70.307L18.582,70.307L18.582,68.381L13.648,68.381L13.648,70.307ZM178.42,70.307L184.34,70.307L184.34,68.381L178.42,68.381L178.42,70.307ZM99.488,70.307L105.408,70.307L105.408,68.381L99.488,68.381L99.488,70.307ZM107.381,70.307L113.301,70.307L113.301,68.381L107.381,68.381L107.381,70.307ZM28.448,70.307L34.368,70.307L34.368,68.381L28.448,68.381L28.448,70.307ZM170.527,70.307L176.447,70.307L176.447,68.381L170.527,68.381L170.527,70.307ZM154.741,70.307L160.661,70.307L160.661,68.381L154.741,68.381L154.741,70.307ZM123.167,70.307L129.087,70.307L129.087,68.381L123.167,68.381L123.167,70.307ZM138.954,70.307L144.874,70.307L144.874,68.381L138.954,68.381L138.954,70.307ZM131.061,70.307L136.981,70.307L136.981,68.381L131.061,68.381L131.061,70.307ZM115.274,70.307L121.194,70.307L121.194,68.381L115.274,68.381L115.274,70.307ZM67.915,70.307L73.835,70.307L73.835,68.381L67.915,68.381L67.915,70.307ZM36.342,70.307L42.261,70.307L42.261,68.381L36.342,68.381L36.342,70.307ZM60.021,70.307L65.941,70.307L65.941,68.381L60.021,68.381L60.021,70.307ZM75.809,70.307L81.729,70.307L81.729,68.381L75.809,68.381L75.809,70.307ZM146.847,70.307L152.767,70.307L152.767,68.381L146.847,68.381L146.847,70.307ZM162.634,70.307L168.554,70.307L168.554,68.381L162.634,68.381L162.634,70.307ZM44.235,70.307L50.155,70.307L50.155,68.381L44.235,68.381L44.235,70.307ZM52.128,70.307L58.048,70.307L58.048,68.381L52.128,68.381L52.128,70.307ZM83.702,70.307L89.622,70.307L89.622,68.381L83.702,68.381L83.702,70.307ZM91.595,70.307L97.515,70.307L97.515,68.381L91.595,68.381L91.595,70.307ZM4.621,56.011L4.621,61.787L6.594,61.787L6.594,56.011L4.621,56.011ZM191.877,56.011L191.877,61.787L193.851,61.787L193.851,56.011L191.877,56.011ZM191.877,47.346L191.877,53.122L193.851,53.122L193.851,47.346L191.877,47.346ZM4.621,47.346L4.621,53.122L6.594,53.122L6.594,47.346L4.621,47.346ZM176.14,37.728L23.153,37.728L27.748,33.244C28.134,32.868 28.134,32.258 27.748,31.883C27.363,31.506 26.737,31.506 26.353,31.883L20.074,38.01C19.688,38.385 19.688,38.995 20.074,39.371L26.353,45.498C26.737,45.874 27.363,45.874 27.748,45.498C28.134,45.122 28.134,44.512 27.748,44.136L23.153,39.653L176.14,39.653L171.546,44.136C171.16,44.512 171.16,45.122 171.546,45.498C171.931,45.874 172.557,45.874 172.941,45.498L179.221,39.371C179.606,38.995 179.606,38.385 179.221,38.01L172.941,31.883C172.557,31.506 171.931,31.506 171.546,31.883C171.16,32.258 171.16,32.868 171.546,33.244L176.14,37.728ZM191.877,38.681L191.877,44.457L193.851,44.457L193.851,38.681L191.877,38.681ZM4.621,38.681L4.621,44.457L6.594,44.457L6.594,38.681L4.621,38.681ZM191.877,30.016L191.877,35.792L193.851,35.792L193.851,30.016L191.877,30.016ZM4.621,30.016L4.621,35.792L6.594,35.792L6.594,30.016L4.621,30.016ZM191.877,21.351L191.877,27.128L193.851,27.128L193.851,21.351L191.877,21.351ZM4.621,21.351L4.621,27.128L6.594,27.128L6.594,21.351L4.621,21.351ZM191.877,12.889L191.877,18.463L193.851,18.463L193.851,12.889L191.877,12.889ZM4.621,12.889L4.621,18.463L6.594,18.463L6.594,12.889L4.621,12.889ZM192.899,0C189.532,0 186.798,2.668 186.798,5.954C186.798,9.239 189.532,11.906 192.899,11.906C196.266,11.906 199,9.239 199,5.954C199,2.668 196.266,0 192.899,0ZM6.102,0C2.734,0 0,2.668 0,5.954C0,9.239 2.734,11.906 6.102,11.906C9.468,11.906 12.202,9.239 12.202,5.954C12.202,2.668 9.468,0 6.102,0ZM192.899,1.926C195.177,1.926 197.027,3.731 197.027,5.954C197.027,8.176 195.177,9.981 192.899,9.981C190.621,9.981 188.771,8.176 188.771,5.954C188.771,3.731 190.621,1.926 192.899,1.926ZM6.102,1.926C8.379,1.926 10.229,3.731 10.229,5.954C10.229,8.176 8.379,9.981 6.102,9.981C3.823,9.981 1.973,8.176 1.973,5.954C1.973,3.731 3.823,1.926 6.102,1.926ZM185.282,7.065L185.282,5.139L179.334,5.139L179.334,7.065L185.282,7.065ZM177.421,5.116L171.501,5.116L171.501,7.042L177.421,7.042L177.421,5.116ZM35.342,5.116L29.422,5.116L29.422,7.042L35.342,7.042L35.342,5.116ZM169.528,5.116L163.608,5.116L163.608,7.042L169.528,7.042L169.528,5.116ZM27.449,5.116L21.529,5.116L21.529,7.042L27.449,7.042L27.449,5.116ZM161.634,5.116L155.714,5.116L155.714,7.042L161.634,7.042L161.634,5.116ZM130.061,5.116L124.141,5.116L124.141,7.042L130.061,7.042L130.061,5.116ZM153.741,5.116L147.821,5.116L147.821,7.042L153.741,7.042L153.741,5.116ZM145.848,5.116L139.928,5.116L139.928,7.042L145.848,7.042L145.848,5.116ZM51.129,5.116L45.209,5.116L45.209,7.042L51.129,7.042L51.129,5.116ZM19.556,5.116L13.636,5.116L13.636,7.042L19.556,7.042L19.556,5.116ZM43.235,5.116L37.316,5.116L37.316,7.042L43.235,7.042L43.235,5.116ZM106.381,5.116L100.461,5.116L100.461,7.042L106.381,7.042L106.381,5.116ZM122.168,5.116L116.248,5.116L116.248,7.042L122.168,7.042L122.168,5.116ZM137.954,5.116L132.035,5.116L132.035,7.042L137.954,7.042L137.954,5.116ZM59.022,5.116L53.102,5.116L53.102,7.042L59.022,7.042L59.022,5.116ZM82.702,5.116L76.782,5.116L76.782,7.042L82.702,7.042L82.702,5.116ZM98.488,5.116L92.568,5.116L92.568,7.042L98.488,7.042L98.488,5.116ZM114.275,5.116L108.355,5.116L108.355,7.042L114.275,7.042L114.275,5.116ZM66.915,5.116L60.995,5.116L60.995,7.042L66.915,7.042L66.915,5.116ZM74.808,5.116L68.888,5.116L68.888,7.042L74.808,7.042L74.808,5.116ZM90.595,5.116L84.675,5.116L84.675,7.042L90.595,7.042L90.595,5.116Z" style="fill:rgb(247,201,46);"/>
</svg>
